<?xml version="1.0" encoding="utf-8"?>
<!-- Generator: Adobe Illustrator 19.2.1, SVG Export Plug-In . SVG Version: 6.00 Build 0)  -->
<svg version="1.1" id="layer" xmlns="http://www.w3.org/2000/svg" xmlns:xlink="http://www.w3.org/1999/xlink" x="0px" y="0px"
	 viewBox="0 0 652 652" style="enable-background:new 0 0 652 652;" xml:space="preserve">
<style type="text/css">
	.st0{fill:#81BE25;}
	.st1{fill:#003963;}
</style>
<g>
	<path class="st0" d="M70.3,283.1c-17.2,0-31.1-13.9-31.1-31.1c0-17.2,13.9-31.1,31.1-31.1c17.2,0,31.1,13.9,31.1,31.1
		C101.4,269.2,87.5,283.1,70.3,283.1 M94.2,210.7H45.8l-24.2,41.9l24.2,41.9h48.4l24.2-41.9L94.2,210.7z"/>
	<path class="st0" d="M152.2,329.1c-17.2,0-31.1-13.9-31.1-31.1c0-17.2,13.9-31.1,31.1-31.1c17.2,0,31.1,13.9,31.1,31.1
		C183.3,315.2,169.4,329.1,152.2,329.1 M176.1,256.7h-48.4l-24.2,41.9l24.2,41.9h48.4l24.2-41.9L176.1,256.7z"/>
	<path class="st0" d="M69.1,377C51.9,377,38,363.1,38,345.9c0-17.2,13.9-31.1,31.1-31.1c17.2,0,31.1,13.9,31.1,31.1
		C100.2,363.1,86.3,377,69.1,377 M93,304.6H44.6l-24.2,41.9l24.2,41.9H93l24.2-41.9L93,304.6z"/>
	<path class="st0" d="M151.3,422.4c-17.2,0-31.1-13.9-31.1-31.1c0-17.2,13.9-31.1,31.1-31.1c17.2,0,31.1,13.9,31.1,31.1
		C182.4,408.5,168.5,422.4,151.3,422.4 M175.2,350h-48.4l-24.2,41.9l24.2,41.9h48.4l24.2-41.9L175.2,350z"/>
	<path class="st1" d="M219.6,327.2c-6,0-10.3,4.5-11.1,11.3h20.9C229.6,331.5,225.7,327.2,219.6,327.2 M243.4,348.5h-35.2
		c-0.1,10.6,5.1,15.8,15.6,15.8c5.6,0,11.6-1.3,16.6-3.5l1.4,11.3c-6,2.4-13.2,3.6-20.3,3.6c-18,0-28.1-9-28.1-29
		c0-17.4,9.6-30.1,26.6-30.1c16.6,0,23.9,11.3,23.9,25.3C243.9,343.8,243.8,346.1,243.4,348.5"/>
	<path class="st1" d="M284.1,365.3v9.3h-33.8v-9.3c3-0.6,6.5-1.1,9.9-1.4v-61.5c-2.7-0.4-6.6-0.9-9.9-1.1v-9.1
		c7.3-0.9,16.1-1.3,24.5-1v72.8C278.2,364.1,281.4,364.7,284.1,365.3"/>
	<path class="st1" d="M315.1,327.2c-6.1,0-10.3,4.5-11.1,11.3H325C325.2,331.5,321.3,327.2,315.1,327.2 M339,348.5h-35.2
		c-0.1,10.6,5.1,15.8,15.6,15.8c5.6,0,11.6-1.3,16.6-3.5l1.4,11.3c-6,2.4-13.2,3.6-20.3,3.6c-18,0-28.1-9-28.1-29
		c0-17.4,9.6-30.1,26.6-30.1c16.6,0,23.9,11.3,23.9,25.3C339.5,343.8,339.4,346.1,339,348.5"/>
	<path class="st1" d="M425.1,338.5c0-6.1-1.4-9.8-6.7-9.8c-6.4,0-13,7.5-13,18.6v16.6c2.8,0.2,5.8,0.6,8.3,1.3v9.4H391v-36
		c0-5.6-1.1-9.8-6.7-9.8c-6.7,0-13,8-13,18.6v16.6c2.7,0.2,5.8,0.6,8.3,1.3v9.4h-32.8v-9.3c3-0.6,6.5-1.1,9.9-1.4V329
		c-2.7-0.5-6.6-0.9-9.9-1.1v-9.1c7.2-0.9,16.1-1.3,23.6-1c0,2.6-0.2,7-0.7,10.3h0.1c3.4-7,10.3-11.4,18.7-11.4
		c10,0,14.3,5.9,15.6,11.4c2.6-5.6,8.9-11.4,18.5-11.4c11,0,17,6.1,17,18.9v28.4c3.3,0.2,6.5,0.8,9.3,1.4v9.3h-23.9V338.5z"/>
	<path class="st1" d="M481,327.2c-6.1,0-10.3,4.5-11.1,11.3h20.9C491.1,331.5,487.2,327.2,481,327.2 M504.9,348.5h-35.2
		c-0.1,10.6,5.1,15.8,15.6,15.8c5.6,0,11.6-1.3,16.6-3.5l1.4,11.3c-6,2.4-13.2,3.6-20.3,3.6c-18,0-28.1-9-28.1-29
		c0-17.4,9.6-30.1,26.6-30.1c16.6,0,23.9,11.3,23.9,25.3C505.4,343.8,505.2,346.1,504.9,348.5"/>
	<path class="st1" d="M557.3,338.2c0-5.9-1.6-9.5-7-9.5c-7.4,0-13.2,8.5-13.2,18.4v16.8c2.7,0.2,5.8,0.6,8.3,1.3v9.4h-32.8v-9.2
		c3-0.6,6.5-1.1,9.9-1.4V329c-2.7-0.5-6.6-0.9-9.9-1.1v-9.1c7.2-0.9,16-1.3,23.6-1c0,2.6-0.2,7.2-0.8,10.2l0.1,0.1
		c3.4-6.7,10-11.4,19.3-11.4c12.8,0,16.9,8.2,16.9,18.2v29.2c3.3,0.2,6.6,0.8,9.4,1.4v9.2h-23.9V338.2z"/>
	<path class="st1" d="M608.5,375.7c-12.6,0-16.4-4.6-16.4-17.8v-28.8h-9.8v-11.3h9.7v-17.5l14.6-3.9v21.3h13.8v11.3h-13.8V354
		c0,7.3,1.7,9.4,6.7,9.4c2.4,0,5-0.3,7.1-0.9v11.8C616.8,375.1,612.5,375.7,608.5,375.7"/>
</g>
</svg>
