<svg id="Icon-Logo-Xcelerate" xmlns="http://www.w3.org/2000/svg" width="302.127" height="72" viewBox="0 0 302.127 72">
  <g id="Group_12283" data-name="Group 12283" transform="translate(16.308)">
    <path id="Path_3759" data-name="Path 3759" d="M113.438,19.809v.909L96.267,41.159l29.981,35.432V77.5h-7.586L92.133,46.156,78.369,62.509H70.783V61.6L87.909,41.159,58.7,6.409V5.5h7.586l25.8,30.662,13.764-16.353Z" transform="translate(-58.7 -5.5)" fill="#4b5c74"/>
  </g>
  <g id="Group_12284" data-name="Group 12284" transform="translate(14.173 14.309)">
    <path id="Path_3760" data-name="Path 3760" d="M79.484,58.35,61.586,79.7H54v-.909L71.126,58.35,54,37.909V37h7.586Z" transform="translate(-54 -37)" fill="#82bc00"/>
  </g>
  <g id="Group_12285" data-name="Group 12285" transform="translate(0 14.309)">
    <path id="Path_3761" data-name="Path 3761" d="M48.284,58.35,30.386,79.7H22.8v-.909L39.926,58.35,22.8,37.909V37h7.586Z" transform="translate(-22.8 -37)" fill="#82bc00"/>
  </g>
  <g id="Group_12286" data-name="Group 12286" transform="translate(73.317 10.72)">
    <path id="Path_3762" data-name="Path 3762" d="M207.458,66.956a9.377,9.377,0,0,0-2.453-5.315,7.53,7.53,0,0,0-5.542-1.908,7.849,7.849,0,0,0-4.406,1.136,8.9,8.9,0,0,0-2.862,2.953,13.383,13.383,0,0,0-1.544,4.088,21.585,21.585,0,0,0-.454,4.5,31,31,0,0,0,.363,4.5,12.566,12.566,0,0,0,1.363,4.179,8.015,8.015,0,0,0,2.816,3.089,8.19,8.19,0,0,0,4.724,1.181,7.364,7.364,0,0,0,5.133-2.044,10.43,10.43,0,0,0,2.953-5.951h5.5a18,18,0,0,1-1,4.27,13.346,13.346,0,0,1-2.408,4.179,11.82,11.82,0,0,1-4.134,3.18,14.184,14.184,0,0,1-6.223,1.272,15,15,0,0,1-6.36-1.272,12.979,12.979,0,0,1-4.724-3.5,15.7,15.7,0,0,1-2.953-5.36,21.364,21.364,0,0,1-1.045-6.768A27.2,27.2,0,0,1,185.154,66a17.005,17.005,0,0,1,2.953-5.951,13.705,13.705,0,0,1,5.042-4,17,17,0,0,1,7.268-1.454A13.04,13.04,0,0,1,206,55.69a11.105,11.105,0,0,1,3.816,2.862,12.278,12.278,0,0,1,2.271,3.952,18.773,18.773,0,0,1,.954,4.361h-5.587Z" transform="translate(-184.2 -43.016)" fill="#4b5c74"/>
    <path id="Path_3763" data-name="Path 3763" d="M286.554,78.721a10.979,10.979,0,0,1-.409,1.726A13.67,13.67,0,0,1,285.1,82.9a17.467,17.467,0,0,1-1.817,2.68,10.655,10.655,0,0,1-2.726,2.362c-.409.273-.818.545-1.317.818a7.564,7.564,0,0,1-1.817.727,15.408,15.408,0,0,1-2.544.545,25.554,25.554,0,0,1-3.5.227,15,15,0,0,1-6.36-1.272,12.979,12.979,0,0,1-4.724-3.5,15.7,15.7,0,0,1-2.953-5.36,21.365,21.365,0,0,1-1.045-6.768A27.2,27.2,0,0,1,257.254,66a17.005,17.005,0,0,1,2.953-5.951,13.706,13.706,0,0,1,5.042-4,17,17,0,0,1,7.268-1.454,13.828,13.828,0,0,1,6.36,1.363,11.748,11.748,0,0,1,4.5,3.952,19.555,19.555,0,0,1,2.726,6.223,34.128,34.128,0,0,1,.909,8.086H262.387q0,5.315,2.453,8.177c1.635,1.953,4.088,2.907,7.359,2.907a9.027,9.027,0,0,0,3.589-.681,9.291,9.291,0,0,0,2.726-1.726,7.6,7.6,0,0,0,1.726-2.18,5.332,5.332,0,0,0,.681-2.09h5.633Zm-5.406-8.949a21.094,21.094,0,0,0-.636-3.77,9.319,9.319,0,0,0-1.59-3.225,8.073,8.073,0,0,0-2.816-2.226,10.159,10.159,0,0,0-4.315-.818,8.339,8.339,0,0,0-3.634.818,9.553,9.553,0,0,0-2.953,2.226,11.039,11.039,0,0,0-2,3.225,9.936,9.936,0,0,0-.727,3.77Z" transform="translate(-223.548 -43.016)" fill="#4b5c74"/>
    <path id="Path_3764" data-name="Path 3764" d="M344.778,75.389H339.1V29.1h5.678Z" transform="translate(-268.735 -29.1)" fill="#4b5c74"/>
    <path id="Path_3765" data-name="Path 3765" d="M396.954,78.721a10.975,10.975,0,0,1-.409,1.726A13.666,13.666,0,0,1,395.5,82.9a17.467,17.467,0,0,1-1.817,2.68,10.655,10.655,0,0,1-2.726,2.362c-.409.273-.818.545-1.317.818a7.564,7.564,0,0,1-1.817.727,15.408,15.408,0,0,1-2.544.545,25.553,25.553,0,0,1-3.5.227,15,15,0,0,1-6.36-1.272,12.979,12.979,0,0,1-4.724-3.5,15.7,15.7,0,0,1-2.953-5.36,21.364,21.364,0,0,1-1.045-6.768A27.2,27.2,0,0,1,367.654,66a17.006,17.006,0,0,1,2.953-5.951,13.706,13.706,0,0,1,5.042-4,17,17,0,0,1,7.268-1.454,13.828,13.828,0,0,1,6.36,1.363,11.748,11.748,0,0,1,4.5,3.952,19.556,19.556,0,0,1,2.726,6.223,34.129,34.129,0,0,1,.909,8.086H372.787q0,5.315,2.453,8.177c1.635,1.953,4.088,2.907,7.359,2.907a9.027,9.027,0,0,0,3.589-.681,9.292,9.292,0,0,0,2.726-1.726,7.6,7.6,0,0,0,1.726-2.18,5.331,5.331,0,0,0,.681-2.09h5.633ZM391.5,69.772a21.094,21.094,0,0,0-.636-3.77,9.319,9.319,0,0,0-1.59-3.225,8.073,8.073,0,0,0-2.816-2.226,10.16,10.16,0,0,0-4.315-.818,8.339,8.339,0,0,0-3.634.818,9.553,9.553,0,0,0-2.953,2.226,11.039,11.039,0,0,0-2,3.225,9.936,9.936,0,0,0-.727,3.77Z" transform="translate(-283.798 -43.016)" fill="#4b5c74"/>
    <path id="Path_3766" data-name="Path 3766" d="M456.478,89.305H450.8V55.6h5.36v5.587h.136a17.314,17.314,0,0,1,3.952-4.77,8.789,8.789,0,0,1,5.5-1.817,3.935,3.935,0,0,1,.818.045,1.684,1.684,0,0,1,.636.182v5.86h-2.135a8.374,8.374,0,0,0-6.314,2.68,8.521,8.521,0,0,0-1.726,2.907,9.678,9.678,0,0,0-.591,3.452V89.305Z" transform="translate(-329.695 -43.016)" fill="#4b5c74"/>
    <path id="Path_3767" data-name="Path 3767" d="M492.372,65.875a12.415,12.415,0,0,1,1.09-5.133,9.7,9.7,0,0,1,2.816-3.5,11.316,11.316,0,0,1,4.361-1.953,24.1,24.1,0,0,1,5.633-.591c.409,0,1.045.045,1.817.091a20.187,20.187,0,0,1,2.589.409,15.824,15.824,0,0,1,2.816.954,8.755,8.755,0,0,1,2.589,1.681,9.118,9.118,0,0,1,1.908,2.589,8.447,8.447,0,0,1,.727,3.679V83.5c0,1.317.636,2,1.862,2a5.793,5.793,0,0,0,.863-.045,9.394,9.394,0,0,0,1-.182v4.134c-.454.136-.954.273-1.408.409a6.015,6.015,0,0,1-1.681.227,8.266,8.266,0,0,1-3.044-.454,4.329,4.329,0,0,1-1.772-1.181,4.041,4.041,0,0,1-.863-1.635,9.3,9.3,0,0,1-.318-1.908,25.051,25.051,0,0,1-1.908,1.862,13.928,13.928,0,0,1-2.544,1.772,14.807,14.807,0,0,1-3.362,1.317,15.988,15.988,0,0,1-4.361.5,11.876,11.876,0,0,1-4.27-.727,10.015,10.015,0,0,1-3.362-2,8.53,8.53,0,0,1-2.18-3.044,10.051,10.051,0,0,1-.772-3.952,17.137,17.137,0,0,1,.273-2.68,9.014,9.014,0,0,1,1.317-3.271,9.87,9.87,0,0,1,3.044-2.907,13.3,13.3,0,0,1,5.587-1.726l9.358-1.181a8.593,8.593,0,0,0,1.045-.227,2.111,2.111,0,0,0,.954-.591,2.759,2.759,0,0,0,.727-1.181,6.165,6.165,0,0,0,.273-2.044c0-3.634-2.635-5.5-7.9-5.5a10.143,10.143,0,0,0-3.907.636,6.232,6.232,0,0,0-2.271,1.635,6.085,6.085,0,0,0-1.136,2.135,14.6,14.6,0,0,0-.454,2.09h-5.133Zm20.76,6.269a3.563,3.563,0,0,1-.818.5,8.818,8.818,0,0,1-1.544.5c-.681.136-1.59.318-2.68.5s-2.544.409-4.27.591c-.681.091-1.454.227-2.271.409a10.482,10.482,0,0,0-2.362.863,5.124,5.124,0,0,0-1.817,1.59,4.256,4.256,0,0,0-.727,2.589A6.118,6.118,0,0,0,498.1,84c.954,1.045,2.544,1.544,4.679,1.544a12.249,12.249,0,0,0,3.861-.591,11.4,11.4,0,0,0,3.316-1.681,9.456,9.456,0,0,0,2.362-2.5,5.862,5.862,0,0,0,.909-3.134v-5.5Z" transform="translate(-351.415 -43.071)" fill="#4b5c74"/>
    <path id="Path_3768" data-name="Path 3768" d="M576.821,50.182v21.9a2.809,2.809,0,0,0,.363,1.5,2.244,2.244,0,0,0,.909.818,2.463,2.463,0,0,0,1.136.273c.409,0,.727.045,1.045.045h2v4.452c-1.045.091-1.908.182-2.68.273s-1.272.182-1.59.182a9.158,9.158,0,0,1-3.452-.545,4.716,4.716,0,0,1-2.044-1.5,6.143,6.143,0,0,1-1.045-2.271,13.917,13.917,0,0,1-.273-2.862V50.182H566.6V45.5h4.588V36.1h5.678v9.4h5.406v4.724h-5.451Z" transform="translate(-392.892 -32.92)" fill="#4b5c74"/>
    <path id="Path_3769" data-name="Path 3769" d="M639.854,78.721a10.982,10.982,0,0,1-.409,1.726A13.675,13.675,0,0,1,638.4,82.9a17.472,17.472,0,0,1-1.817,2.68,10.655,10.655,0,0,1-2.726,2.362c-.409.273-.818.545-1.317.818a7.563,7.563,0,0,1-1.817.727,15.408,15.408,0,0,1-2.544.545,25.554,25.554,0,0,1-3.5.227,15,15,0,0,1-6.36-1.272,12.98,12.98,0,0,1-4.724-3.5,15.7,15.7,0,0,1-2.953-5.36,21.364,21.364,0,0,1-1.045-6.768A27.2,27.2,0,0,1,610.554,66a17,17,0,0,1,2.953-5.951,13.706,13.706,0,0,1,5.042-4,17,17,0,0,1,7.268-1.454,13.828,13.828,0,0,1,6.36,1.363,11.749,11.749,0,0,1,4.5,3.952,19.556,19.556,0,0,1,2.725,6.223,34.126,34.126,0,0,1,.909,8.086H615.687q0,5.315,2.453,8.177c1.635,1.953,4.088,2.907,7.359,2.907a9.028,9.028,0,0,0,3.589-.681,9.291,9.291,0,0,0,2.726-1.726,7.6,7.6,0,0,0,1.726-2.18,5.33,5.33,0,0,0,.681-2.09h5.633Zm-5.406-8.949a21.094,21.094,0,0,0-.636-3.77,9.319,9.319,0,0,0-1.59-3.225,8.073,8.073,0,0,0-2.816-2.226,10.159,10.159,0,0,0-4.315-.818,8.339,8.339,0,0,0-3.634.818,9.553,9.553,0,0,0-2.953,2.226,11.041,11.041,0,0,0-2,3.225,9.936,9.936,0,0,0-.727,3.77Z" transform="translate(-416.358 -43.016)" fill="#4b5c74"/>
  </g>
  <g id="Group_12287" data-name="Group 12287" transform="translate(0.318 61.007)">
    <path id="Path_3770" data-name="Path 3770" d="M28.588,141.026H24.908v1.454H28.27v1.227H24.908v1.817h3.816v1.227H23.5V139.8h5.088Z" transform="translate(-23.5 -139.8)" fill="#4b5c74"/>
    <path id="Path_3771" data-name="Path 3771" d="M39.054,145.478h3.452v1.272H37.6V139.8h1.454Z" transform="translate(-31.195 -139.8)" fill="#4b5c74"/>
    <path id="Path_3772" data-name="Path 3772" d="M55.733,141.026H52.054v1.454h3.362v1.227H52.054v1.817h3.861v1.227H50.6V139.8h5.088v1.227Z" transform="translate(-38.29 -139.8)" fill="#4b5c74"/>
    <path id="Path_3773" data-name="Path 3773" d="M71.423,146.75H70.06v-5.814h0l-1.317,5.814H67.335l-1.272-5.814h0v5.814H64.7V139.8h2.135l1.272,5.451h0l1.227-5.451h2.09v6.95Z" transform="translate(-45.985 -139.8)" fill="#4b5c74"/>
    <path id="Path_3774" data-name="Path 3774" d="M87.688,141.026H84.008v1.454H87.37v1.227H84.008v1.817h3.861v1.227H82.6V139.8h5.088Z" transform="translate(-55.753 -139.8)" fill="#4b5c74"/>
    <path id="Path_3775" data-name="Path 3775" d="M100.97,139.8h1.363v6.95h-1.454L98.063,141.8h0v4.951H96.7V139.8h1.544l2.771,4.815h0V139.8Z" transform="translate(-63.448 -139.8)" fill="#4b5c74"/>
    <path id="Path_3776" data-name="Path 3776" d="M114.343,146.75H112.89v-5.724H110.8V139.8h5.633v1.227h-2.09v5.724Z" transform="translate(-71.143 -139.8)" fill="#4b5c74"/>
  </g>
  <g id="Group_12288" data-name="Group 12288" transform="translate(296.676 22.44)">
    <path id="Path_3777" data-name="Path 3777" d="M677.172,55.309v2.226h-.454V55.309H675.9v-.363h2.09v.363Zm3.452-.409h.727v2.635H680.9V55.4h0l-.818,2.135h-.318l-.818-2.135h0v2.135h-.454V54.9h.727l.727,1.908Z" transform="translate(-675.9 -54.9)" fill="#4b5c74"/>
  </g>
</svg>
